<svg xmlns="http://www.w3.org/2000/svg" viewBox="0 0 24 24" fill="none" stroke="#D8DEE9" stroke-width="1.9" stroke-linecap="round" stroke-linejoin="round">
  <circle cx="12" cy="12" r="3.1"/>
  <path d="M12 2.8v2.1"/>
  <path d="M12 19.1v2.1"/>
  <path d="M4.9 4.9l1.5 1.5"/>
  <path d="M17.6 17.6l1.5 1.5"/>
  <path d="M2.8 12h2.1"/>
  <path d="M19.1 12h2.1"/>
  <path d="M4.9 19.1l1.5-1.5"/>
  <path d="M17.6 6.4l1.5-1.5"/>
  <path d="M9.7 4.6a7.8 7.8 0 0 1 4.6 0"/>
  <path d="M19.4 9.7a7.8 7.8 0 0 1 0 4.6"/>
  <path d="M14.3 19.4a7.8 7.8 0 0 1-4.6 0"/>
  <path d="M4.6 14.3a7.8 7.8 0 0 1 0-4.6"/>
</svg>
